<?xml version="1.0" encoding="UTF-8"?>
<!DOCTYPE svg PUBLIC "-//W3C//DTD SVG 1.1//EN" "http://www.w3.org/Graphics/SVG/1.1/DTD/svg11.dtd">
<svg version="1.1" xmlns="http://www.w3.org/2000/svg" xmlns:xlink="http://www.w3.org/1999/xlink" x="0" y="0" width="52" height="52" viewBox="0, 0, 52, 52">
  <g id="Layer_1" transform="translate(-47.2, -144.8)">
    <g>
      <path d="M48.7,146.3 L98.7,146.3 L98.7,196.3 L48.7,196.3 L48.7,146.3 z" fill="#FFFFFF"/>
      <path d="M48.7,146.3 L98.7,146.3 L98.7,196.3 L48.7,196.3 L48.7,146.3 z" fill-opacity="0" stroke="#000000" stroke-width="1"/>
    </g>
  </g>
  <g id="Layer_2" transform="translate(-47.2, -144.8)">
    <path d="M57.7,155.5 L57.7,186.9" fill-opacity="0" stroke="#000000" stroke-width="1"/>
    <path d="M57.3,187.1 L90.7,187.1" fill-opacity="0" stroke="#000000" stroke-width="1"/>
    <g>
      <path d="M61.1,170.5 L66.5,170.5 L66.5,187.1 L61.1,187.1 L61.1,170.5 z" fill="#000000"/>
      <path d="M61.1,170.5 L66.5,170.5 L66.5,187.1 L61.1,187.1 L61.1,170.5 z" fill-opacity="0" stroke="#000000" stroke-width="1"/>
    </g>
    <g>
      <path d="M70.9,156.9 L76.3,156.9 L76.3,187.1 L70.9,187.1 L70.9,156.9 z" fill="#000000"/>
      <path d="M70.9,156.9 L76.3,156.9 L76.3,187.1 L70.9,187.1 L70.9,156.9 z" fill-opacity="0" stroke="#000000" stroke-width="1"/>
    </g>
    <g>
      <path d="M80.7,160.158 L86.1,160.158 L86.1,186.9 L80.7,186.9 L80.7,160.158 z" fill="#000000"/>
      <path d="M80.7,160.158 L86.1,160.158 L86.1,186.9 L80.7,186.9 L80.7,160.158 z" fill-opacity="0" stroke="#000000" stroke-width="1"/>
    </g>
  </g>
</svg>
