<?xml version="1.0" encoding="UTF-8"?>
<!DOCTYPE svg PUBLIC "-//W3C//DTD SVG 1.1//EN" "http://www.w3.org/Graphics/SVG/1.1/DTD/svg11.dtd">
<svg version="1.1" xmlns="http://www.w3.org/2000/svg" xmlns:xlink="http://www.w3.org/1999/xlink" x="0" y="0" width="52" height="52" viewBox="0, 0, 52, 52">
  <g id="Layer_1" transform="translate(-104.6, -144.4)">
    <g>
      <path d="M106.1,145.9 L156.1,145.9 L156.1,195.9 L106.1,195.9 L106.1,145.9 z" fill="#FFFFFF"/>
      <path d="M106.1,145.9 L156.1,145.9 L156.1,195.9 L106.1,195.9 L106.1,145.9 z" fill-opacity="0" stroke="#000000" stroke-width="1"/>
    </g>
  </g>
  <g id="Layer_2" transform="translate(-104.6, -144.4)">
    <path d="M113.9,154.5 L129.5,154.5 L129.5,168.7 L113.9,168.7 L113.9,154.5 z" fill-opacity="0" stroke="#000000" stroke-width="1"/>
    <path d="M132.5,154.5 L148.1,154.5 L148.1,168.7 L132.5,168.7 L132.5,154.5 z" fill-opacity="0" stroke="#000000" stroke-width="1"/>
    <path d="M113.7,172.3 L129.3,172.3 L129.3,186.5 L113.7,186.5 L113.7,172.3 z" fill-opacity="0" stroke="#000000" stroke-width="1"/>
    <path d="M132.3,172.3 L147.9,172.3 L147.9,186.5 L132.3,186.5 L132.3,172.3 z" fill-opacity="0" stroke="#000000" stroke-width="1"/>
  </g>
</svg>
